# xmcd
#
# Track frame offsets: 
#        150
#        18720
#        34965
#        53405
#        68855
#        86760
#        106035
#        121962
#        136642
#        154060
#        165050
#        183985
#        201342
#        233495
#        258810
#        274910
#        289305
#        308160
#        327565
#
# Disc length: 4634 seconds
#
# Revision: 18
# Processed by: cddbd v1.5.2PL0 Copyright (c) Steve Scherf et al.
# Submitted via: ExactAudioCopy v1.3
#
DISCID=00121813
DTITLE=David Bowie - The Platinum Collection CD3 - The Best Of David B
DTITLE=owie 1980 - 1987
DYEAR=2007
DGENRE=Pop/Rock
TTITLE0=David Bowie - Let's Dance [SINGLE]
TTITLE1=David Bowie - Ashes to Ashes [SINGLE]
TTITLE2=David Bowie and QUEEN - Under Pressure
TTITLE3=David Bowie - Fashion
TTITLE4=David Bowie - Modern Love [SINGLE]
TTITLE5=David Bowie - China Girl [SINGLE]
TTITLE6=David Bowie - Scary Monsters (And Super Creeps) 
TTITLE7=David Bowie - Up the Hill BACKWARDS
TTITLE8=David Bowie - Alabama Song
TTITLE9=David Bowie - Drowned Girl
TTITLE10=David Bowie - Cat People (PUTTING OUT FIRE) [SINGLE]
TTITLE11=David Bowie and PAT METHENY GROUP - This Is Not Amercia
TTITLE12=David Bowie - Loving the Alien
TTITLE13=David Bowie - Absolute Beginners [SINGLE]
TTITLE14=David Bowie - When the Wind Blows
TTITLE15=David Bowie - Blue Jean
TTITLE16=David Bowie - Day-In Day-Out [SINGLE]
TTITLE17=David Bowie - Time Will Crawl
TTITLE18=David Bowie - Underground [SINGLE]
EXTD=
EXTT0=
EXTT1=
EXTT2=
EXTT3=
EXTT4=
EXTT5=
EXTT6=
EXTT7=
EXTT8=
EXTT9=
EXTT10=
EXTT11=
EXTT12=
EXTT13=
EXTT14=
EXTT15=
EXTT16=
EXTT17=
EXTT18=
PLAYORDER=
